<svg width="22" height="18" fill="none" xmlns="http://www.w3.org/2000/svg"><path d="M22 9c0 2.387-1.159 4.676-3.222 6.364C16.715 17.052 13.918 18 11 18c-2.917 0-5.715-.948-7.778-2.636C1.159 13.676 0 11.387 0 9s1.159-4.676 3.222-6.364C5.285.948 8.082 0 11 0c2.917 0 5.715.948 7.778 2.636C20.841 4.324 22 6.613 22 9zm-8.258-6.757c.693.983 1.218 2.05 1.59 3.157H18.7c-1.138-1.495-2.89-2.61-4.941-3.143l-.018-.014zM8.8 5.4h4.4A11.68 11.68 0 0011 1.8a11.68 11.68 0 00-2.2 3.6zm-2.758 5.4a11.884 11.884 0 010-3.6H2.488a6.162 6.162 0 000 3.6h3.554zm2.2 4.943A12.43 12.43 0 016.668 12.6H3.3c1.14 1.494 2.89 2.608 4.942 3.143zm0-13.5C6.188 2.781 4.436 3.901 3.3 5.4h3.385c.355-1.108.88-2.16 1.573-3.143l-.016-.014zM13.2 12.6H8.8a12.355 12.355 0 002.2 3.6 12.355 12.355 0 002.2-3.6zm.542-3.6c0-.61-.068-1.205-.17-1.8H8.428a10.256 10.256 0 000 3.6h5.144c.102-.595.17-1.19.17-1.8zm4.958 3.6h-3.385a11.556 11.556 0 01-1.573 3.143c2.055-.534 3.812-1.648 4.958-3.143zm.812-1.8a5.994 5.994 0 000-3.6h-3.554a11.878 11.878 0 010 3.6h3.554z" fill="#fff"/></svg>